HIERARCHY
ROOT SimulationBone
{
	OFFSET 0.000000 0.000000 0.000000
	CHANNELS 6 Xposition Yposition Zposition Zrotation Yrotation Xrotation 
	JOINT Hips
	{
		OFFSET 0.000000 0.000000 0.000000
		CHANNELS 6 Xposition Yposition Zposition Zrotation Yrotation Xrotation 
		JOINT LeftUpLeg
		{
			OFFSET 0.103462 1.857831 10.548502
			CHANNELS 3 Zrotation Yrotation Xrotation
			JOINT LeftLeg
			{
				OFFSET 43.500008 -0.000027 -0.000004
				CHANNELS 3 Zrotation Yrotation Xrotation
				JOINT LeftFoot
				{
					OFFSET 42.372200 0.000011 -0.000002
					CHANNELS 3 Zrotation Yrotation Xrotation
					JOINT LeftToe
					{
						OFFSET 17.299999 -0.000001 -0.000002
						CHANNELS 3 Zrotation Yrotation Xrotation
						End Site
						{
							OFFSET 0.000000 0.000000 0.000000
						}
					}
				}
			}
		}
		JOINT RightUpLeg
		{
			OFFSET 0.103458 1.857828 -10.548501
			CHANNELS 3 Zrotation Yrotation Xrotation
			JOINT RightLeg
			{
				OFFSET 43.500038 -0.000031 0.000011
				CHANNELS 3 Zrotation Yrotation Xrotation
				JOINT RightFoot
				{
					OFFSET 42.372257 -0.000004 0.000010
					CHANNELS 3 Zrotation Yrotation Xrotation
					JOINT RightToe
					{
						OFFSET 17.299994 -0.000005 0.000004
						CHANNELS 3 Zrotation Yrotation Xrotation
						End Site
						{
							OFFSET 0.000000 0.000000 0.000000
						}
					}
				}
			}
		}
		JOINT Spine
		{
			OFFSET 6.901966 -2.603733 0.000000
			CHANNELS 3 Zrotation Yrotation Xrotation
			JOINT Spine1
			{
				OFFSET 12.588101 0.000002 0.000000
				CHANNELS 3 Zrotation Yrotation Xrotation
				JOINT Spine2
				{
					OFFSET 12.343201 0.000004 -0.000002
					CHANNELS 3 Zrotation Yrotation Xrotation
					JOINT Neck
					{
						OFFSET 25.832895 -0.000004 0.000002
						CHANNELS 3 Zrotation Yrotation Xrotation
						JOINT Head
						{
							OFFSET 11.766604 0.000011 0.000001
							CHANNELS 3 Zrotation Yrotation Xrotation
							End Site
							{
								OFFSET 0.000000 0.000000 0.000000
							}
						}
					}
					JOINT LeftShoulder
					{
						OFFSET 19.745903 -1.480368 6.000108
						CHANNELS 3 Zrotation Yrotation Xrotation
						JOINT LeftArm
						{
							OFFSET 11.284126 -0.000007 -0.000022
							CHANNELS 3 Zrotation Yrotation Xrotation
							JOINT LeftForeArm
							{
								OFFSET 33.000053 0.000001 0.000028
								CHANNELS 3 Zrotation Yrotation Xrotation
								JOINT LeftHand
								{
									OFFSET 25.200005 0.000019 0.000013
									CHANNELS 3 Zrotation Yrotation Xrotation
									End Site
									{
										OFFSET 0.000000 0.000000 0.000000
									}
								}
							}
						}
					}
					JOINT RightShoulder
					{
						OFFSET 19.746094 -1.480373 -6.000072
						CHANNELS 3 Zrotation Yrotation Xrotation
						JOINT RightArm
						{
							OFFSET 11.284138 -0.000017 -0.000010
							CHANNELS 3 Zrotation Yrotation Xrotation
							JOINT RightForeArm
							{
								OFFSET 33.000092 0.000013 0.000009
								CHANNELS 3 Zrotation Yrotation Xrotation
								JOINT RightHand
								{
									OFFSET 25.199776 0.000139 0.000415
									CHANNELS 3 Zrotation Yrotation Xrotation
									End Site
									{
										OFFSET 0.000000 0.000000 0.000000
									}
								}
							}
						}
					}
				}
			}
		}
	}
}
MOTION
Frames: 15
Frame Time: 0.033333
-111.341873 0.000000 25.968689 0.000000 269.738301 0.000000 -1.198060 89.346336 -2.376727 94.665468 -2.479146 178.381880 160.254584 -10.207114 174.080444 -50.266282 0.480051 -8.077214 73.576437 2.733096 -10.140540 21.454553 0.003098 -0.000000 167.592188 12.677096 179.969092 -31.550532 3.626346 1.559716 79.750361 0.520515 6.852521 21.454560 -0.003106 -0.000016 9.426592 0.990392 1.234498 8.862445 1.883293 2.541508 8.544514 1.898759 2.530083 -4.429193 -15.126238 -7.596702 -18.822543 16.610112 -17.447425 -155.211760 -79.578363 -26.744345 10.620265 50.768557 24.159943 -31.972997 -15.802437 1.320824 10.242356 -1.139107 10.233449 -168.448133 76.352233 13.256979 -10.035078 -51.919072 -12.511364 -39.600593 17.447378 -1.634548 9.029240 4.196504 -21.507881 
-112.183027 0.000000 26.430767 0.000000 269.662773 0.000000 -0.904534 90.115417 -2.335545 93.837243 -2.729477 178.451678 159.490791 -6.023191 173.702448 -48.121247 -1.342705 -4.748499 76.107883 0.862852 -9.188110 21.454553 0.003095 0.000001 169.240148 12.496401 -179.291072 -27.866733 4.009644 1.562109 78.763740 0.350919 6.026965 21.454560 -0.003115 -0.000016 8.927181 0.946339 1.448458 7.865645 1.792104 2.958136 7.547849 1.810083 2.947271 -4.923224 -15.029461 -7.769051 -17.490274 16.273727 -17.287405 -156.198954 -78.065326 -25.772290 9.334030 52.139567 24.969845 -28.572100 -14.760927 1.187509 8.816434 5.074570 15.881691 -167.073435 76.349309 14.661083 -7.236386 -51.076103 -12.933458 -43.699793 18.033660 -1.786834 8.264975 5.889264 -20.005699 
-112.990842 0.000000 26.838775 0.000000 269.608919 0.000000 -0.525541 90.504517 -2.087501 93.626710 -2.320914 178.726446 160.136381 -2.842303 173.050383 -43.861556 -3.061000 -0.998065 77.479583 -1.978998 -10.306505 21.454553 0.003100 0.000000 171.208937 11.686795 -179.054693 -24.976446 4.845352 1.902506 78.250950 -0.116698 5.156030 21.454558 -0.003101 -0.000016 8.592747 0.971880 1.588381 7.199628 1.843226 3.234404 6.881907 1.862858 3.223243 -5.271512 -14.750027 -7.887740 -16.321464 16.585969 -17.289270 -156.512583 -77.704672 -25.460066 6.343215 53.902429 25.299876 -24.507267 -13.863712 1.062053 9.382595 12.235132 27.123222 -164.213662 76.006748 17.584518 -5.687289 -50.328116 -13.352318 -47.499280 18.560875 -1.937021 7.060956 6.322423 -16.405846 
-113.768616 0.000000 27.194813 0.000000 269.575723 0.000000 -0.073416 90.559937 -1.642819 93.908998 -1.244175 179.118454 162.313244 -0.851305 173.186085 -37.843326 -4.845495 2.470941 78.444934 -5.057154 -12.943791 21.454551 0.003088 -0.000002 173.169187 10.038606 -179.812202 -23.070409 5.870806 2.831393 78.242822 -0.984425 4.472045 21.454555 -0.003113 -0.000016 8.398519 1.075212 1.519231 6.813184 2.059329 3.099413 6.495374 2.078143 3.086935 -5.392677 -13.542084 -7.778185 -15.658881 15.840336 -16.534747 -157.937989 -77.556183 -24.010490 3.539956 55.188933 24.870916 -22.187053 -12.412734 0.936086 14.419684 18.468796 41.498870 -162.721088 75.660697 19.113525 -5.623058 -49.551981 -12.072767 -50.847125 18.259353 -2.025700 5.889173 5.476829 -13.468101 
-114.519650 0.000000 27.500979 0.000000 269.562163 0.000000 0.500288 90.581932 -1.149010 94.881231 -0.223642 179.511707 166.114148 1.089798 173.241765 -30.915854 -5.479173 5.084912 77.375941 -7.022981 -12.755390 21.454557 0.003089 0.000001 175.507066 8.202804 179.015843 -21.699224 6.504864 3.964185 78.452270 -1.932467 4.017586 21.454560 -0.003099 -0.000017 8.384260 1.091288 1.228705 6.780041 2.108886 2.519443 6.462041 2.124191 2.506676 -5.318352 -11.373144 -7.384408 -15.492136 14.763811 -15.233480 -159.606057 -77.892645 -22.305192 1.397319 56.976028 25.602197 -21.468159 -11.930684 0.895786 22.126837 21.955973 53.345748 -161.924907 75.206236 19.932712 -7.108877 -49.268941 -9.283967 -53.616555 17.760058 -2.086701 5.374223 3.443618 -11.860453 
-115.247245 0.000000 27.759376 0.000000 269.567216 0.000000 0.989448 90.641006 -0.585933 95.833788 0.680258 -179.602201 169.707866 2.698813 174.583228 -25.678294 -4.246534 3.387214 74.208448 -1.700367 1.907129 21.454553 0.003089 0.000001 177.552530 6.321101 179.347367 -20.920301 6.446188 4.532704 78.790446 -2.490821 3.462157 21.454558 -0.003125 -0.000019 8.357117 1.086578 0.734955 6.716790 2.128721 1.531800 6.398575 2.138078 1.518913 -5.233399 -9.285954 -6.742108 -14.736133 14.097312 -13.760762 -160.856692 -78.237420 -21.026597 -0.971641 58.662316 27.526712 -21.652623 -12.020784 0.903938 27.112550 21.586270 58.953624 -161.420224 74.906835 20.452800 -8.928535 -49.747130 -6.628238 -55.796092 17.932523 -2.175568 4.866672 1.024000 -13.063739 
-115.954700 0.000000 27.972101 0.000000 269.589857 0.000000 1.426049 90.836746 -0.105707 96.934343 0.960152 -178.425129 172.781492 4.097010 177.470403 -22.134215 -2.043821 1.174189 73.227694 1.164746 6.180628 21.454551 0.003095 -0.000001 179.287125 4.862904 -179.993052 -20.867867 5.912022 5.097084 78.852840 -2.985447 3.063567 21.454560 -0.003103 -0.000017 8.405740 0.875123 0.187839 6.802651 1.737683 0.426694 6.484410 1.740352 0.416204 -4.775253 -7.147244 -6.404309 -14.845442 13.654854 -12.781588 -162.119348 -78.215146 -19.741086 -4.491930 59.439209 28.286404 -22.438514 -12.497362 0.944899 26.913454 18.941568 59.221995 -160.958380 73.870292 20.939208 -10.720658 -50.319981 -4.050729 -57.669384 18.049412 -2.251844 5.002006 -0.539420 -15.764270 
-116.645315 0.000000 28.141256 0.000000 269.629062 0.000000 1.656368 91.002899 0.400172 97.484526 0.859276 -177.599158 174.116958 4.494505 -178.304615 -20.837475 -1.590957 -0.836178 72.665119 2.604559 6.162058 21.454551 0.003079 0.000000 179.190846 3.544113 -178.601087 -22.790135 4.539938 5.148495 78.707487 -3.049624 2.854027 21.454558 -0.003104 -0.000015 8.391751 0.452589 -0.193112 6.769451 0.915599 -0.359488 6.451309 0.913538 -0.365017 -4.319949 -4.970470 -6.163225 -15.397560 13.524036 -12.079630 -163.083115 -78.213657 -18.759733 -9.117023 59.293822 26.028903 -23.390621 -12.476171 0.956785 22.002029 12.874595 58.433525 -161.162780 71.976533 20.754307 -11.480132 -50.709968 -2.692092 -58.728883 18.037643 -2.290449 4.410709 -0.055870 -19.470854 
-117.322390 0.000000 28.268941 0.000000 269.683804 0.000000 1.875034 91.130142 0.869283 98.081238 0.780396 -177.809919 175.103374 2.795300 -176.133613 -20.324341 -4.106798 -1.551207 72.559722 3.057053 5.773664 21.454553 0.003088 0.000001 177.732123 2.427904 -178.523755 -26.726571 3.579316 5.349104 77.556887 -3.178205 2.763231 21.454560 -0.003095 -0.000017 8.414945 -0.054697 -0.230012 6.817232 -0.095848 -0.462841 6.499145 -0.098502 -0.462240 -3.806200 -3.748836 -5.971707 -15.680108 14.625115 -12.042635 -161.634897 -78.175647 -20.234922 -15.312231 58.634900 22.429735 -23.995120 -12.251438 0.951116 14.252820 5.646378 55.322941 -161.978578 71.004085 19.926887 -10.418810 -52.634899 -2.864599 -58.673627 18.507460 -2.320526 3.459989 0.682899 -21.959786 
-117.989226 0.000000 28.357254 0.000000 269.753050 0.000000 1.992548 91.095016 1.085104 98.139947 0.383870 -178.673633 175.432138 1.920705 -175.895703 -20.032381 -5.550608 -1.837708 72.595745 3.231780 5.570540 21.454550 0.003080 -0.000002 174.728042 2.259804 -177.132965 -32.309424 2.393082 4.351379 76.118244 -2.515792 2.396807 21.454562 -0.003112 -0.000014 8.314308 -0.608961 -0.091440 6.617285 -1.211751 -0.217445 6.299118 -1.212900 -0.210110 -3.217472 -3.274828 -5.781231 -16.067195 16.118748 -12.335383 -161.208119 -77.913634 -20.672927 -20.404007 57.437342 19.733059 -25.686540 -12.585551 0.998535 7.549332 -1.298221 50.575211 -161.524425 71.497184 20.388378 -8.556451 -55.723634 -4.885194 -57.320109 18.786705 -2.289241 2.752973 1.807072 -22.074678 
-118.649123 0.000000 28.408297 0.000000 269.835744 0.000000 2.075649 90.942848 1.117144 98.230730 -0.162439 -179.636012 175.602374 2.388506 -176.553273 -20.218883 -4.722221 -2.005917 72.803287 3.023900 4.637524 21.454553 0.003101 0.000001 171.548083 2.892707 -175.567895 -38.059187 1.707430 3.043908 74.569239 -1.629697 2.067818 21.454557 -0.003112 -0.000017 8.233159 -1.103965 0.033918 6.454586 -2.208136 0.006420 6.136227 -2.207922 0.019778 -2.811649 -3.647870 -5.375478 -16.378193 17.611409 -12.587000 -161.604612 -77.056248 -20.279315 -24.331429 55.721281 17.691061 -28.870318 -13.587724 1.117679 4.333452 -6.564944 42.292767 -161.858572 72.437278 20.033293 -6.411649 -57.962433 -8.317203 -55.129414 18.650970 -2.200344 3.135484 2.075321 -20.659439 
-119.305380 0.000000 28.424168 0.000000 269.930624 0.000000 2.255602 90.839043 1.048415 98.731942 -0.774500 179.862531 176.469180 2.982191 -175.586610 -19.739978 -4.384496 -2.833412 72.750257 3.324114 3.759226 21.454553 0.003095 -0.000002 169.758915 3.680292 -174.418798 -41.916123 1.507359 2.820209 74.699832 -1.114276 3.249574 21.454558 -0.003106 -0.000018 8.253302 -1.554988 0.096863 6.494704 -3.112975 0.106632 6.176088 -3.112137 0.125445 -2.603226 -4.280208 -4.987611 -16.922697 18.851080 -12.875046 -162.432636 -75.769235 -19.448409 -28.088388 53.612709 15.132853 -32.780629 -14.892471 1.279252 4.987089 -8.456595 33.189836 -161.742131 73.218692 20.143590 -4.802075 -59.076888 -13.461233 -52.312228 18.489165 -2.090719 4.194267 1.705618 -18.980682 
-119.961298 0.000000 28.406969 0.000000 -89.960775 0.000000 2.518125 90.767151 1.019575 99.355591 -1.353776 179.809359 177.581326 3.139205 -174.768094 -19.014123 -4.617992 -3.193639 72.591872 3.465547 3.357783 21.454548 0.003087 -0.000002 169.511211 4.309008 -174.039873 -42.425720 2.158248 2.948942 78.299404 -1.460870 2.673973 21.454558 -0.003094 -0.000015 8.296965 -1.926094 0.171028 6.580876 -3.858794 0.232697 6.261984 -3.857176 0.256029 -2.233630 -5.315053 -4.984328 -17.686082 19.676501 -13.529466 -162.848512 -74.691793 -19.034173 -32.983540 51.707039 11.580658 -35.386100 -15.250621 1.360265 6.708193 -7.682409 24.316665 -160.659915 73.459047 21.250805 -3.918237 -59.136140 -19.162531 -48.743642 18.131055 -1.948102 4.525392 0.439878 -17.761236 
-120.620177 0.000000 28.358798 0.000000 -89.844517 0.000000 2.831300 90.896896 1.026892 99.810352 -1.461222 -179.963272 178.846058 2.677708 -174.714791 -17.714038 -4.693374 -2.914914 72.134502 3.218304 3.131936 21.454553 0.003083 0.000000 170.772105 4.023806 -174.199890 -38.339146 2.569135 3.593743 79.812919 -1.813108 3.281538 21.454557 -0.003113 -0.000017 8.233654 -2.141046 0.264099 6.451274 -4.293450 0.409062 6.132218 -4.290754 0.435032 -0.930952 -6.498248 -5.240610 -18.839675 20.336653 -14.456418 -163.452574 -74.035159 -18.421507 -38.017103 50.374209 8.150665 -36.624861 -15.226163 1.387846 8.823845 -5.643501 18.294535 -160.893985 73.523250 21.009792 -2.602689 -59.010205 -24.643813 -44.797435 17.314091 -1.771808 5.008088 -1.157964 -18.093359 
-121.285317 0.000000 28.281757 0.000000 -89.718077 0.000000 3.150180 91.051498 1.031289 99.849298 -1.447803 -179.741909 179.728519 2.128406 -174.346152 -16.297694 -4.774726 -2.838770 71.666026 3.073652 2.788624 21.454551 0.003094 -0.000001 172.869178 3.390504 -175.780164 -30.819951 3.239101 4.420184 78.683950 -2.376941 3.348922 21.454557 -0.003112 -0.000017 8.034868 -2.262706 0.384122 6.048703 -4.542326 0.650396 5.729546 -4.538174 0.677877 -0.009879 -7.745022 -5.598468 -19.115488 20.531888 -15.134830 -164.331715 -74.012408 -17.520627 -41.836934 50.164458 4.708148 -38.615188 -14.985068 1.421173 9.715402 -4.794288 18.824519 -160.938286 73.626974 20.963029 -0.997721 -59.239542 -29.520443 -40.938112 16.145022 -1.585465 5.743734 -2.911557 -19.741654 
